<?xml version="1.0" standalone="no"?>
<!DOCTYPE svg PUBLIC "-//W3C//DTD SVG 20010904//EN"
 "http://www.w3.org/TR/2001/REC-SVG-20010904/DTD/svg10.dtd">
<svg version="1.0" xmlns="http://www.w3.org/2000/svg"
 width="300.000000pt" height="300.000000pt" viewBox="0 0 300.000000 300.000000"
 preserveAspectRatio="xMidYMid meet">
<metadata>
Created by potrace 1.11, written by Peter Selinger 2001-2013
</metadata>
<g transform="translate(0.000000,300.000000) scale(0.100000,-0.100000)"
fill="#000000" stroke="none">
<path d="M935 2979 c-125 -31 -218 -82 -306 -169 -117 -115 -173 -258 -168
-425 9 -292 197 -504 491 -555 l63 -11 0 -370 0 -370 -25 -6 c-14 -3 -47 -11
-75 -17 l-50 -12 -1 -60 c0 -32 3 -61 7 -64 4 -3 96 -5 203 -4 108 0 196 -2
196 -6 0 -4 -13 -31 -30 -61 -49 -90 -64 -152 -64 -274 1 -87 5 -123 23 -174
49 -141 150 -255 283 -320 130 -64 189 -76 368 -76 172 1 325 24 465 70 l40
13 2 109 c1 59 2 133 2 165 l1 56 78 14 77 14 3 65 3 65 -306 0 c-168 0 -305
-3 -306 -6 -6 -35 -2 -114 6 -120 6 -5 30 -11 55 -14 25 -3 54 -8 65 -10 11
-3 28 -5 38 -5 16 -1 17 -11 15 -108 l-3 -107 -80 -18 c-88 -19 -200 -25 -255
-13 -97 21 -191 98 -236 192 -45 95 -61 244 -40 358 19 98 84 193 161 234 38
20 40 20 60 2 37 -34 94 -44 245 -45 132 0 145 1 142 17 -4 21 30 23 51 3 7
-8 27 -48 43 -90 l29 -76 72 0 73 0 0 165 0 164 -37 10 c-118 32 -245 51 -383
57 -36 1 -70 3 -76 3 -7 1 -49 47 -95 102 -46 56 -98 118 -116 138 -17 19 -29
39 -27 43 3 4 21 15 40 24 50 24 127 103 155 160 35 73 37 190 3 261 -29 59
-73 102 -145 138 -45 23 -49 28 -47 58 1 18 -1 38 -5 43 -12 20 -81 8 -124
-20 l-41 -27 -288 1 c-325 1 -307 -4 -358 84 -44 76 -58 142 -57 269 0 260
135 401 366 384 80 -6 219 -40 241 -58 7 -5 27 -46 44 -89 18 -44 37 -80 44
-81 14 -1 107 -1 121 0 8 1 13 263 6 327 0 6 -20 15 -43 19 -24 4 -47 9 -53
10 -159 42 -419 53 -540 24z m610 -1125 c22 -34 34 -122 22 -160 -29 -87 -102
-131 -219 -130 l-73 1 0 133 0 133 80 27 c44 16 89 33 100 39 25 14 65 -5 90
-43z m-209 -463 c7 -3 46 -49 88 -101 42 -52 90 -112 107 -132 l30 -37 -72
-36 c-50 -26 -79 -34 -97 -30 -15 3 -40 8 -57 11 -66 11 -62 -1 -62 179 l-1
165 27 -6 c14 -4 31 -9 37 -13z"/>
</g>
</svg>
